<?xml version="1.0" encoding="UTF-8" standalone="no"?>
<!-- Created with Inkscape (http://www.inkscape.org/) -->

<svg
   xmlns:dc="http://purl.org/dc/elements/1.1/"
   xmlns:cc="http://creativecommons.org/ns#"
   xmlns:rdf="http://www.w3.org/1999/02/22-rdf-syntax-ns#"
   xmlns:svg="http://www.w3.org/2000/svg"
   xmlns="http://www.w3.org/2000/svg"
   xmlns:sodipodi="http://sodipodi.sourceforge.net/DTD/sodipodi-0.dtd"
   xmlns:inkscape="http://www.inkscape.org/namespaces/inkscape"
   id="svg69993"
   version="1.1"
   inkscape:version="0.91 r13725"
   width="1111.875"
   height="1462.5"
   viewBox="0 0 1111.875 1462.5"
   sodipodi:docname="CocaSilhouette.svg">
  <metadata
     id="metadata69999">
    <rdf:RDF>
      <cc:Work
         rdf:about="">
        <dc:format>image/svg+xml</dc:format>
        <dc:type
           rdf:resource="http://purl.org/dc/dcmitype/StillImage" />
        <dc:title></dc:title>
      </cc:Work>
    </rdf:RDF>
  </metadata>
  <defs
     id="defs69997" />
  <sodipodi:namedview
     pagecolor="#ffffff"
     bordercolor="#666666"
     borderopacity="1"
     objecttolerance="10"
     gridtolerance="10"
     guidetolerance="10"
     inkscape:pageopacity="0"
     inkscape:pageshadow="2"
     inkscape:window-width="1600"
     inkscape:window-height="837"
     id="namedview69995"
     showgrid="false"
     inkscape:zoom="0.45811966"
     inkscape:cx="555.9375"
     inkscape:cy="731.25"
     inkscape:window-x="-8"
     inkscape:window-y="-8"
     inkscape:window-maximized="1"
     inkscape:current-layer="svg69993" />
  <path
     style="fill:#000000"
     d="m 497.82685,1460.7813 c -0.008,-1.3503 -0.46286,-2.023 -1.18623,-1.7578 -0.64453,0.2363 -1.0664,0.9043 -0.9375,1.4843 0.32612,1.4676 -0.30598,1.318 -2.12748,-0.5036 -1.21352,-1.2135 -1.721,-1.295 -2.29367,-0.3684 -5.26478,8.5185 -8.59129,-49.7829 -4.18574,-73.3604 2.15155,-11.5145 0.0775,-41.9724 -3.19185,-46.8736 -9.3383,-13.9995 -22.02915,-35.2006 -31.53575,-52.683 -3.56535,-6.5566 -7.89933,-13.8398 -12.55227,-21.0938 -1.81905,-2.8359 -4.31213,-7.0547 -5.54017,-9.375 -2.52266,-4.7664 -17.7001,-27.3327 -24.59093,-36.5625 -2.50223,-3.3516 -4.58004,-6.4462 -4.61738,-6.877 -0.0373,-0.4308 -4.19967,-6.1261 -9.24962,-12.6563 -5.04997,-6.5301 -9.9035,-13.6794 -10.78563,-15.8872 -0.88213,-2.2078 -3.28941,-6.6832 -5.34951,-9.9451 -2.06009,-3.262 -3.74562,-6.1942 -3.74562,-6.516 0,-1.2948 -7.95225,-13.5198 -11.13332,-17.1153 -1.86886,-2.1124 -5.62691,-6.4147 -8.35122,-9.5606 -10.25403,-11.841 -34.44476,-20.8809 -36.26499,-13.5519 -2.29709,9.249 -10.44465,24.3654 -15.63754,29.0126 -8.4682,7.5784 -11.39157,9.8894 -17.20668,13.6021 -3.60938,2.3044 -9.51563,6.8983 -13.125,10.2085 -18.31235,16.7949 -39.25648,27.2917 -48.21993,24.1671 -5.49105,-1.9141 -20.82529,-21.1571 -26.20762,-32.8878 -4.80323,-10.4686 -5.09863,-11.8036 -5.13823,-23.2213 l -0.0383,-11.0322 -6.13664,-0.5145 c -8.87029,-0.7436 -22.89726,-6.0978 -29.39626,-11.2207 -6.95097,-5.4792 -16.58182,-17.33 -16.58182,-20.404 0,-5.4549 10.75297,-17.841 17.8125,-20.5176 1.80469,-0.6843 8.22415,-3.5539 14.26548,-6.3769 11.24949,-5.2566 16.8412,-6.5626 35.42202,-8.2729 5.38691,-0.4957 25.0431,1.3576 30.46875,2.873 1.80514,0.5042 12.24604,-5.5823 16.875,-9.8372 2.67973,-2.4632 7.66034,-5.0966 16.77543,-8.8699 8.16986,-3.3818 8.7439,-3.5566 17.34427,-5.2814 2.78147,-0.5578 5.99764,-1.6303 7.14705,-2.3835 1.14942,-0.7531 4.26756,-1.6272 6.92921,-1.9424 4.86169,-0.5758 6.14753,-2.3549 2.12953,-2.9463 -1.11521,-0.1642 -6.06353,-2.4037 -10.99627,-4.9768 -8.36699,-4.3644 -9.18535,-4.6067 -12.19977,-3.6119 -3.47338,1.1464 -11.82178,-0.8287 -13.26275,-3.1377 -1.80545,-2.8929 -1.00219,-10.132 1.21793,-10.9761 1.19313,-0.4536 2.82688,-2.0963 3.63056,-3.6505 1.30104,-2.516 1.72578,-2.7251 3.87416,-1.9084 6.14814,2.3376 10.47132,5.66 11.03553,8.4811 0.53828,2.6914 2.54064,5.5475 3.88927,5.5475 0.33926,0 2.48625,1.3425 4.77109,2.9834 7.03225,5.0501 6.83015,2.1825 -0.51136,-7.2559 -12.1454,-15.6144 -15.37563,-19.09 -17.77842,-19.1287 -1.43651,-0.024 -3.55545,-1.4819 -5.83999,-4.0207 -4.34749,-4.83119 -4.68199,-5.16626 -10.9665,-10.98785 -5.37955,-4.98319 -5.42922,-5.23941 -2.34028,-12.07078 2.15028,-4.75547 12.5937,-8.98678 17.51733,-7.09744 1.46441,0.56194 6.22773,8.85413 6.22773,10.84144 0,0.61078 0.61323,1.77872 1.36273,2.59537 0.7495,0.81675 2.28984,2.49788 3.42297,3.73603 2.10506,2.30007 2.35961,4.44601 1.26035,10.62544 -0.70169,3.94449 0.55717,6.60029 7.67202,16.18599 2.29631,3.0937 5.44419,7.6776 6.99527,10.1864 2.60963,4.2208 4.98087,5.7688 2.84624,1.858 -0.51994,-0.9526 -2.9005,-7.0054 -5.29014,-13.4507 -5.19943,-14.02387 -6.95215,-18.58359 -8.12361,-21.13387 -0.48384,-1.05329 -1.00243,-2.52985 -1.15242,-3.28125 -0.14999,-0.75132 -0.50921,-1.99894 -0.79828,-2.77238 -0.28906,-0.77344 -1.25406,-3.72656 -2.14444,-6.5625 -0.89037,-2.83594 -2.61155,-7.51931 -3.82484,-10.40756 -1.21328,-2.88825 -3.71533,-9.42103 -5.56012,-14.51728 -3.28212,-9.06703 -8.9566,-21.41644 -12.49487,-27.19269 -0.97663,-1.59432 -4.07828,-4.19828 -6.89258,-5.78658 -4.78942,-2.70298 -11.95096,-10.05463 -17.56707,-18.03339 -4.88795,-6.94427 -11.12081,-16.58894 -13.42005,-20.76604 -5.31357,-9.65333 -7.15299,-11.71484 -16.23536,-18.19556 -5.10101,-3.63982 -16.44643,-10.76843 -25.21205,-15.84137 -8.76563,-5.07293 -17.83594,-10.78072 -20.15625,-12.68398 -2.32031,-1.90325 -5.21538,-3.99063 -6.43348,-4.63863 -1.2181,-0.64799 -4.68035,-3.44487 -7.69387,-6.21529 -3.01353,-2.77042 -9.18877,-6.95141 -13.72277,-9.29109 -11.0924,-5.72402 -32.97703,-20.96558 -42.07979,-29.30651 -10.162899,-9.31234 -15.066371,-11.80795 -19.802226,-10.07825 -8.091753,2.95537 -21.758761,6.93774 -27.455364,8.0001 -3.351563,0.62503 -9.140341,2.5579 -12.863952,4.29527 -8.36879,3.90473 -11.421336,3.99801 -15.462802,0.47252 -1.693723,-1.47748 -4.816131,-3.56669 -6.938687,-4.64269 C 8.6842458,779.11128 2.1794196,769.22748 5.3181362,764.39 14.400458,750.39206 41.188209,738.03086 60.378026,738.98263 c 8.02641,0.39808 9.997254,0.20092 12.96136,-1.29668 10.744014,-5.42837 35.688384,-6.12283 51.348114,-1.42955 21.6296,6.48247 36.41781,12.21461 41.89057,16.23743 1.64138,1.20652 3.23246,2.19367 3.53573,2.19367 4.63195,0 31.31741,23.06191 38.01179,32.85027 1.95373,2.85671 4.27553,5.7943 5.15955,6.52796 4.00127,3.32076 13.88581,20.52243 17.26593,30.0472 0.99656,2.8082 1.84276,4.35046 1.88043,3.42724 0.19528,-4.7854 7.20122,-10.18064 11.66852,-8.9859 2.50454,0.66982 2.60365,0.57881 1.9766,-1.81517 -0.67923,-2.59318 -1.98969,-8.45682 -5.17279,-23.14535 -1.00564,-4.64063 -2.49095,-10.54688 -3.30068,-13.125 -0.80973,-2.57813 -2.25084,-8.0625 -3.20248,-12.1875 -5.78648,-25.0822 -8.374,-32.27629 -15.82985,-44.01167 -1.6202,-2.55017 -2.94582,-5.09768 -2.94582,-5.66115 0,-0.56346 -0.83446,-2.66121 -1.85435,-4.66167 -1.01988,-2.00045 -2.32589,-5.14824 -2.90222,-6.9951 -1.91251,-6.12865 -8.55443,-22.04978 -10.82056,-25.93761 -1.22773,-2.10632 -2.02371,-4.03821 -1.76884,-4.29308 0.95246,-0.95245 -3.08696,-3.87823 -12.18528,-8.82586 -5.15625,-2.80395 -12.53906,-7.86063 -16.40625,-11.23707 -12.35175,-10.78431 -16.31785,-13.05913 -28.59375,-16.4004 -21.87047,-5.95273 -37.28303,-11.47962 -53.4375,-19.16249 -5.671875,-2.69747 -13.572351,-6.05542 -17.556611,-7.46209 -3.984262,-1.40668 -11.889049,-5.44132 -17.566193,-8.96587 -5.677144,-3.52455 -11.102713,-6.65603 -12.056819,-6.95885 -0.954106,-0.30282 -3.047222,-1.70405 -4.651369,-3.11383 -1.604147,-1.4098 -4.942167,-4.23989 -7.41782,-6.28909 -2.475654,-2.04921 -6.188688,-5.57303 -8.251188,-7.83071 -2.0625,-2.25769 -5.867304,-6.31827 -8.45512,-9.0235 -13.0986414,-13.69294 -14.4928679,-24.30499 -3.73238,-28.40873 48.487112,-18.49158 99.08103,-3.50766 139.6875,41.36993 4.64062,5.12875 11.45913,12.61079 15.15222,16.62677 6.26558,6.81337 11.45374,13.6925 15.69461,20.80993 0.98139,1.64705 3.78656,6.17458 6.2337,10.06119 3.97663,6.31573 9.98669,17.43926 22.04306,40.79769 2.14379,4.15346 5.26716,11.53628 6.94083,16.40625 2.71173,7.89058 8.87128,24.44729 10.96715,29.47951 1.85864,4.46258 1.33036,-21.94701 -0.67098,-33.54374 -1.08739,-6.30095 -2.31548,-13.56903 -2.72907,-16.1513 -0.41359,-2.58227 -1.82918,-6.92798 -3.14578,-9.65715 -6.97634,-14.46126 -8.08545,-27.88743 -3.11259,-37.67906 5.13534,-10.11157 8.46226,-10.87174 5.678,-1.29737 -2.24218,7.71032 -2.66249,16.17981 -0.94833,19.10987 0.75413,1.28906 2.52123,4.55859 3.92691,7.26562 3.26477,6.28727 3.56606,6.20465 4.95995,-1.36025 0.63664,-3.45518 1.89438,-8.41221 2.79497,-11.01563 0.90059,-2.60342 1.74374,-6.84287 1.87367,-9.42099 0.28568,-5.66885 3.4644,-22.76056 5.31785,-28.59375 1.43901,-4.5288 7.63906,-27.13359 8.45592,-30.82943 0.27178,-1.22962 1.10839,-3.42351 1.85915,-4.87531 0.75075,-1.45181 1.36501,-3.11599 1.36501,-3.69818 0,-0.5822 1.08725,-3.87268 2.4161,-7.31218 1.32885,-3.43951 3.26582,-8.57396 4.30437,-11.4099 3.45312,-9.42934 4.89295,-12.57109 10.92816,-23.84561 6.24041,-11.65783 7.23601,-13.22738 14.29383,-22.53383 2.35743,-3.10849 5.88355,-7.76119 7.83582,-10.33931 6.34988,-8.38547 13.99324,-16.60746 20.69047,-22.25679 3.60937,-3.04464 7.40625,-6.2503 8.4375,-7.12369 4.86303,-4.11865 12.8658,-9.73907 19.6875,-13.8267 4.125,-2.47174 7.71094,-4.75292 7.96875,-5.06928 0.72339,-0.88767 15.05558,-7.50404 16.26918,-7.51057 0.59102,-0.003 2.31994,-0.65518 3.84206,-1.44889 9.02704,-4.7072 23.6585,-6.02175 25.54782,-2.29533 2.55109,5.03166 0.0832,23.3603 -4.3549,32.34375 -1.01894,2.0625 -3.17893,7.54687 -4.79998,12.1875 -4.89741,14.02001 -13.3706,30.10135 -23.1238,43.88687 -5.0389,7.12215 -10.09662,14.29402 -11.23937,15.9375 -3.05349,4.3914 -8.09323,11.13765 -9.18428,12.29415 -0.52224,0.55356 -3.21907,3.9596 -5.99298,7.56898 -5.47539,7.12453 -34.55037,36.23789 -41.93456,41.98992 -2.50824,1.95383 -10.46669,7.94434 -17.68544,13.31224 -15.5791,11.5847 -31.41091,27.1979 -34.38474,33.90994 -3.92617,8.86151 -5.89049,27.90191 -3.67536,35.62564 0.46539,1.62271 1.11376,8.7918 1.44082,15.93132 0.32707,7.13952 0.77834,14.4575 1.00281,16.26219 0.22448,1.80469 0.67931,7.07812 1.01076,11.71875 0.33144,4.64062 0.7273,8.65256 0.87968,8.91542 0.15238,0.26285 0.53594,4.69254 0.85235,9.84375 0.85378,13.89967 2.82801,27.1684 5.98292,40.21103 l 0.658,2.72022 2.75646,-4.36084 c 3.36102,-5.31729 5.04209,-5.48025 10.48912,-1.01681 4.69588,3.84792 5.20787,6.52044 1.85294,9.67223 -3.71274,3.48794 -3.96815,10.22311 -0.50872,13.41528 1.77178,1.63489 2.73756,3.45292 2.73912,5.15625 0.004,4.32663 14.80925,-21.97871 19.58867,-34.80425 2.84467,-7.63364 12.29075,-25.96153 17.18632,-33.34603 6.70342,-10.11145 16.77173,-24.50002 21.32031,-30.46875 2.35765,-3.09375 4.98479,-6.67969 5.83809,-7.96875 8.92967,-13.48991 43.59359,-38.33768 61.55664,-44.12498 2.90884,-0.93717 8.87475,-3.03125 13.25756,-4.65353 19.21506,-7.11235 39.09052,-6.34231 53.13153,2.05851 2.01204,1.20381 4.48602,2.65318 5.49773,3.22081 4.92928,2.76561 -2.27637,28.98211 -12.76011,46.42542 -2.54053,4.22704 -4.61915,7.78955 -4.61915,7.91668 0,0.12713 2.15387,0.52738 4.78637,0.88943 20.3188,2.79456 52.84727,23.43255 82.82691,52.55034 2.15975,2.09765 4.75112,4.41797 5.75861,5.15625 7.65427,5.60898 24.63297,29.52132 35.09231,49.42305 1.81937,3.46185 4.64947,8.82552 6.28911,11.91927 1.63964,3.09375 3.62198,8.10276 4.40521,11.13113 0.78322,3.02837 2.03539,5.9815 2.78261,6.5625 2.79274,2.17154 13.14723,35.15078 15.50472,49.38284 0.46565,2.81106 1.27331,6.79853 1.79481,8.86103 2.7485,10.87016 4.88762,18.65953 5.21388,18.98579 1.00371,1.00372 1.45839,-5.64275 0.63257,-9.24704 -2.92833,-12.78093 -4.28178,-21.64444 -5.30779,-34.76012 -0.63298,-8.09125 -0.85294,-8.77213 -3.708,-11.47758 -1.81662,-1.72142 -3.26564,-4.19335 -3.60937,-6.1573 -0.31585,-1.80469 -0.82657,-4.38553 -1.13492,-5.73521 -0.61351,-2.68537 6.12326,-8.32729 9.94324,-8.32729 3.80586,0 11.89083,4.38498 12.33074,6.68772 1.18387,6.19704 0.27696,10.96716 -2.81712,14.81734 -3.48967,4.34241 -4.05693,10.9148 -2.06832,23.96369 0.55005,3.60937 1.1466,8.57861 1.32564,11.04275 0.33518,4.61316 1.52129,7.36013 1.52129,3.52325 0,-2.67514 4.20102,-22.15277 6.26901,-29.06558 1.27221,-4.25277 1.35174,-5.98884 0.46744,-10.20476 -0.58607,-2.7941 -0.79216,-5.52258 -0.45797,-6.0633 0.33418,-0.54073 0.52983,-3.87831 0.43478,-7.41686 l -0.17283,-6.43371 4.29603,-4.23522 c 3.84556,-3.7911 4.60857,-4.16564 7.27666,-3.57183 1.63935,0.36485 3.82438,0.74974 4.85563,0.85532 3.18237,0.32579 6.08682,1.58085 6.23654,2.69491 0.51602,3.83967 1.90958,7.15572 3.01343,7.17063 0.78574,0.0106 0.78397,0.19378 -0.007,0.70313 -1.51005,0.97264 -5.32049,8.52858 -5.59382,11.09231 -0.44555,4.17894 -3.26791,8.51903 -6.84869,10.53153 -1.9801,1.11288 -4.05485,3.18588 -4.61056,4.60667 -1.83766,4.69834 -4.84635,14.58928 -4.84635,15.93217 0,0.72627 -0.99901,4.34801 -2.22001,8.04829 -3.62007,10.97071 -3.7992,12.161 -1.65778,11.01494 1.5606,-0.83533 10.44006,-17.59612 10.44006,-19.70699 0,-0.65456 6.029,-15.4609 9.7543,-23.95515 0.67842,-1.54688 2.19913,-5.34375 3.37936,-8.4375 1.18024,-3.09375 2.7158,-6.29103 3.41236,-7.10507 0.69656,-0.81404 1.26648,-1.964 1.26648,-2.55546 0,-0.59147 0.84217,-2.45669 1.87149,-4.14494 1.02933,-1.68824 1.87308,-3.80781 1.875,-4.71016 0.002,-0.90234 0.41735,-1.64062 0.92315,-1.64062 0.5058,0 1.18476,-1.16016 1.5088,-2.57813 0.32404,-1.41796 3.87843,-9.32812 7.89864,-17.57812 4.02021,-8.25 8.44603,-17.53125 9.83516,-20.625 1.38912,-3.09375 5.16976,-11.10938 8.40142,-17.8125 16.15843,-33.51593 20.00429,-42.45624 21.57574,-50.15625 0.36831,-1.80469 1.22492,-4.16048 1.90358,-5.23508 1.09935,-1.74075 0.93595,-2.23508 -1.49828,-4.5326 -1.50271,-1.41832 -2.7322,-3.14065 -2.7322,-3.82741 0,-0.68677 -0.34794,-1.38928 -0.7732,-1.56116 -1.03708,-0.41915 -6.97862,-13.15273 -9.00598,-19.3011 -2.09304,-6.34762 -6.51836,-9.30819 -38.43154,-25.71101 -30.08937,-15.46542 -40.28708,-23.38054 -68.02701,-52.80039 -13.01532,-13.80352 -13.21273,-13.9653 -21.90155,-17.94923 -3.01568,-1.38272 -7.6563,-4.47631 -10.3125,-6.87465 -5.0607,-4.56942 -12.32982,-7.5819 -21.70447,-8.99483 -2.57813,-0.38857 -5.10938,-0.78925 -5.625,-0.8904 -0.51563,-0.10116 -5.15625,-0.47118 -10.3125,-0.82227 -10.56829,-0.71962 -20.16138,-2.22034 -21.5625,-3.3732 -0.51562,-0.42426 -2.42761,-1.04978 -4.24886,-1.39004 -8.6725,-1.62027 -13.51418,-23.08498 -6.48715,-28.7596 6.61561,-5.34236 35.22318,-7.08645 52.92351,-3.22652 3.60937,0.78709 12.35272,2.66236 19.42964,4.16725 11.90534,2.53164 20.30614,5.70006 24.21066,9.13121 0.79903,0.70216 3.33028,1.92353 5.625,2.71415 2.29471,0.79061 5.01595,1.79996 6.0472,2.243 17.22973,7.40205 29.83167,13.33827 32.13381,15.13682 1.40453,1.0973 6.98338,4.85489 12.39744,8.35021 12.20421,7.87905 30.03928,23.22492 36.70307,31.58051 2.75862,3.45898 6.12445,7.4682 7.47963,8.90938 1.35516,1.44118 2.30432,2.77995 2.10922,2.97504 -0.19509,0.19509 2.38754,4.87689 5.73918,10.40399 3.35165,5.5271 6.0939,10.24657 6.0939,10.48771 0,0.24114 1.63969,3.9103 3.64375,8.1537 7.84478,16.61052 8.80175,19.50152 8.13506,24.57597 -2.54612,19.3796 1.97311,37.99371 6.40613,26.38601 0.86347,-2.26096 2.39853,-4.86071 3.41125,-5.7772 2.45572,-2.2224 2.69398,-12.09796 0.31391,-13.01128 -2.518,-0.96624 -1.10683,-7.83092 2.16054,-10.51004 3.71349,-3.04492 5.69664,-3.53359 7.40545,-1.82478 2.0588,2.05881 2.72113,1.84113 2.88242,-0.94731 0.0769,-1.32898 1.02609,-3.35978 2.10938,-4.51288 1.08328,-1.15311 1.9828,-2.70219 1.99893,-3.44239 0.0161,-0.74021 1.08455,-3.45521 2.37429,-6.03333 2.97467,-5.94623 7.98957,-18.63948 12.59332,-31.875 3.70254,-10.64458 4.34449,-12.29294 12.77882,-32.8125 2.75524,-6.70313 5.49508,-14.29688 6.08852,-16.875 1.20405,-5.23076 5.22945,-19.08142 9.2638,-31.875 5.16471,-16.37812 10.30943,-36.81641 10.30943,-40.95602 0,-1.55971 0.67774,-5.42798 1.50609,-8.59616 1.42118,-5.43555 1.46557,-20.59101 0.0773,-26.39104 -0.24759,-1.03439 -1.36146,-6.30783 -2.47529,-11.71875 -4.19501,-20.37929 -17.7336,-46.36256 -29.55033,-56.71303 -0.58866,-0.51562 -2.94482,-3.42809 -5.2359,-6.47213 -7.71449,-10.24992 -10.07314,-13.19801 -13.94832,-17.43412 -2.12261,-2.32031 -6.90703,-8.39131 -10.63202,-13.4911 -3.725,-5.0998 -9.75853,-13.32636 -13.40784,-18.28125 -9.37309,-12.72642 -17.57038,-25.11312 -21.5702,-32.59408 -1.88638,-3.52815 -3.93971,-7.04763 -4.56295,-7.82107 -0.62325,-0.77344 -3.12103,-4.78125 -5.55062,-8.90625 -2.4296,-4.125 -6.1496,-10.24219 -8.26667,-13.59375 -2.11707,-3.35156 -5.28785,-9.45532 -7.04616,-13.56391 -1.75832,-4.10858 -3.54229,-7.90546 -3.96436,-8.4375 -0.90236,-1.13743 -7.76348,-23.24092 -9.32154,-30.02984 -1.20594,-5.25468 -0.71586,-15.13906 1.27829,-25.78125 0.72463,-3.86719 1.5638,-9.96623 1.86482,-13.55342 1.06783,-12.72511 4.38184,-14.52651 19.84927,-10.78954 11.79344,2.84934 20.17924,7.11233 29.22349,14.856 4.28904,3.67228 8.63586,7.12514 9.65961,7.67304 5.65936,3.02879 32.60932,29.01384 32.67118,31.50142 0.0149,0.60156 0.39163,1.23437 0.83704,1.40625 0.44541,0.17188 3.46785,4.53125 6.71654,9.6875 3.24868,5.15625 7.31805,11.56206 9.04304,14.23513 1.72499,2.67308 4.55686,8.15745 6.29306,12.1875 1.73618,4.03005 4.33204,9.85862 5.76858,12.95237 19.66895,42.35947 27.21255,115.89352 19.61968,191.25 -0.56454,5.60289 0.91931,6.64656 1.90153,1.33743 0.4389,-2.37236 2.46594,-11.39669 4.72261,-21.02493 1.88483,-8.0417 4.90209,-22.79145 5.56157,-27.1875 0.30942,-2.0625 0.95221,-5.64844 1.42843,-7.96875 0.47623,-2.32031 1.52933,-8.01563 2.34023,-12.65625 0.8109,-4.64063 1.86669,-10.33594 2.34621,-12.65625 0.47953,-2.32031 1.5454,-9.28125 2.36863,-15.46875 0.82322,-6.1875 1.89148,-13.35938 2.37392,-15.9375 0.48243,-2.57813 1.08041,-7.21875 1.32884,-10.3125 0.49071,-6.1112 1.59887,-13.19484 3.66656,-23.4375 3.76341,-18.64282 2.15661,-91.73368 -2.33385,-106.16316 -1.00951,-3.2439 -6.16799,-11.38052 -9.66387,-15.24309 -1.16668,-1.28906 -3.98066,-5.08321 -6.25328,-8.43143 -5.21881,-7.68885 -4.47592,-6.68761 -11.38017,-15.33773 -3.23227,-4.0496 -7.44429,-9.38889 -9.36005,-11.86509 -1.91576,-2.47621 -5.29076,-6.34043 -7.5,-8.58716 -10.50323,-10.68147 -30.50625,-32.81992 -34.58632,-38.27859 -2.50511,-3.35156 -4.90073,-6.51562 -5.32358,-7.03125 -1.79426,-2.18796 -12.10585,-18.16127 -14.26074,-22.09084 -3.23343,-5.896319 -4.69524,-7.67508 -8.06544,-9.81419 C 711.46976,87.762001 689.61994,68.653199 677.46073,57.0079 671.70461,51.495058 665.10476,45.657652 662.7944,44.035886 652.80244,37.021987 632.8125,13.734456 632.8125,9.1080931 c 0,-4.537199 7.23659,-2.1805416 22.5,7.3273199 1.80469,1.124173 5.39062,3.232156 7.96875,4.684406 5.82278,3.279956 13.6635,9.008109 17.7121,12.939833 1.68789,1.63916 4.48623,4.033022 6.21855,5.319694 3.60017,2.674013 4.45214,3.510781 24.86787,24.424105 8.27668,8.478414 16.67683,17.524674 18.66699,20.102799 1.99016,2.578125 5.60142,6.796875 8.02502,9.375 2.4236,2.578125 8.12538,9.32813 12.67063,15 4.54525,5.67188 10.19341,12.47535 12.55147,15.11883 4.84943,5.43642 16.72816,20.94136 19.30153,25.19367 0.93612,1.54687 3.68399,5.76562 6.10637,9.375 4.60763,6.86539 17.78572,30.02052 17.78572,31.25116 0,0.39147 1.89844,3.60219 4.21875,7.13493 2.32031,3.53274 4.21875,6.51813 4.21875,6.63419 0,0.37674 8.58802,14.51097 8.81693,14.51097 0.12207,0 0.0338,-3.58594 -0.19631,-7.96875 -0.44195,-8.42039 0.27239,-9.75497 3.1363,-5.85938 3.85786,5.24762 -1.05194,-14.08694 -5.69078,-22.40998 -4.62384,-8.29614 -5.98931,-9.98295 -20.31918,-25.10079 C 779.34572,132.92368 769.32699,114.87237 761.31045,83.979976 759.27572,76.139 757.02922,49.148438 758.06604,45 c 0.32218,-1.289063 0.69222,-9.9375 0.82231,-19.21875 0.13011,-9.28125 0.29282,-17.4578917 0.3616,-18.1703148 0.18207,-1.8859547 6.32916,-0.8539877 12.71897,2.1352454 2.87022,1.3427264 7.64436,3.5586254 10.60921,4.9242214 20.04075,9.230698 35.99299,25.420747 44.4444,45.106977 1.0487,2.442754 2.70539,6.146779 3.68153,8.231168 2.07907,4.439496 8.12445,27.259584 9.55121,36.053953 2.16978,13.3742 1.26301,51.49893 -1.60543,67.5 -3.10926,17.34446 -3.42668,45.12065 -0.87848,76.875 1.38178,17.21911 1.3466,31.91596 -0.13013,54.375 -0.61789,9.39727 1.63868,5.20316 3.27864,-6.09375 5.75405,-39.63701 7.72324,-49.16355 15.01842,-72.65625 1.52111,-4.89844 3.80001,-13.125 5.06423,-18.28125 2.30561,-9.40371 4.84848,-18.46588 5.91896,-21.09375 0.31505,-0.77344 0.64462,-1.61719 0.73236,-1.875 0.0878,-0.25781 0.65152,-1.65637 1.25284,-3.10791 0.60133,-1.45153 1.09476,-2.92809 1.09654,-3.28125 0.004,-0.70656 4.92383,-13.05616 6.97911,-17.51709 0.7127,-1.54688 2.3539,-5.21738 3.64711,-8.15668 1.29322,-2.93931 3.89047,-7.97036 5.77165,-11.18013 1.8812,-3.20977 4.0496,-7.68934 4.81868,-9.9546 0.76908,-2.26526 3.74723,-7.99202 6.61813,-12.72612 2.87089,-4.73411 6.69425,-11.98247 8.49635,-16.10747 1.8021,-4.125 4.49819,-9.327567 5.99132,-11.561261 1.49312,-2.233693 3.60522,-5.806688 4.69355,-7.939987 2.23877,-4.388354 3.48949,-6.250365 11.91776,-17.742613 3.30005,-4.499749 6.36584,-7.955319 6.81285,-7.679047 0.44702,0.276273 0.81277,-0.296441 0.81277,-1.272698 0,-0.976257 2.00391,-3.690302 4.45312,-6.031211 2.44922,-2.340909 5.73582,-5.680332 7.3035,-7.420941 5.93569,-6.590195 12.27132,-11.797126 20.96175,-17.227242 0.82519,-0.515625 1.71132,-1.169599 1.96913,-1.453275 2.45456,-2.700762 15.67022,-8.895492 23.90625,-11.20583 1.54688,-0.433922 5.53805,-1.929043 8.86915,-3.3224891 29.7153,-12.4301189 42.708,-10.7043773 34.8887,4.6340201 -4.413,8.656614 -9.5391,22.126086 -9.5391,25.065341 0,12.580888 -13.4773,39.809751 -32.28075,65.218273 -11.5575,15.61728 -14.64572,19.95028 -16.69678,23.42659 -1.15453,1.95682 -2.73581,4.21281 -3.51394,5.01331 -0.77812,0.80051 -2.25853,2.65636 -3.28978,4.12412 -3.96984,5.65014 -10.77384,13.50185 -18.35672,21.1832 -4.34128,4.39766 -9.36984,9.98913 -11.17453,12.42547 -8.2794,11.17727 -21.81851,27.79012 -30,36.81081 -3.35156,3.69534 -9.66856,10.89236 -14.03778,15.99338 -4.36922,5.10102 -10.12597,11.2917 -12.79279,13.75708 -4.07816,3.7701 -13.00633,13.51197 -24.2453,26.455 -6.95287,8.00706 -9.63712,15.03771 -13.60134,35.625 -2.81093,14.59792 -6.1545,26.181 -9.17183,31.77382 -0.86456,1.60252 -1.67805,3.54649 -1.80776,4.31993 -0.34057,2.03079 -1.07436,7.32193 -1.69021,12.1875 -0.29368,2.32031 -0.92752,6.11719 -1.40851,8.4375 -1.44827,6.98644 -4.59758,24.4298 -5.6187,31.12084 -0.52688,3.45239 -1.15585,6.82739 -1.39771,7.5 -0.24187,0.6726 -1.06144,4.80885 -1.82127,9.19166 -2.40668,13.88197 -10.98908,55.16346 -13.15615,63.28125 -0.68823,2.57812 -1.97131,7.85156 -2.85126,11.71875 -2.1803,9.58185 -6.55609,24.97395 -9.99449,35.15625 -2.91376,8.62864 -7.37171,22.98656 -18.19258,58.59375 -5.05665,16.63942 -10.26463,32.77237 -12.29353,38.08215 -2.40731,6.30011 4.90341,-0.56723 7.63303,-7.17011 0.53868,-1.30307 3.99831,-8.29768 7.68806,-15.54358 3.68974,-7.24591 8.47604,-17.35946 10.63623,-22.47455 8.62835,-20.4311 17.17621,-39.37898 18.39697,-40.78023 0.70918,-0.81404 1.28942,-2.1045 1.28942,-2.86769 0,-0.76319 0.61871,-2.20654 1.37492,-3.20743 0.85327,-1.12937 1.18191,-2.90895 0.86621,-4.6905 -0.56701,-3.19975 2.32241,-10.1153 8.20144,-19.62931 6.91627,-11.19259 7.60675,-20.91855 4.02669,-56.71875 -1.03211,-10.32094 -0.58423,-30.07872 0.83945,-37.03125 2.89941,-14.15928 5.31629,-28.30049 5.31629,-31.10562 0,-6.864 7.51428,-27.65969 16.19946,-44.83188 3.12946,-6.1875 6.14371,-12.19593 6.69836,-13.35206 0.55463,-1.15614 1.32484,-2.10536 1.71155,-2.10938 0.38672,-0.004 0.70313,-0.47896 0.70313,-1.05542 0,-0.57647 1.16016,-2.43241 2.57812,-4.12431 1.41797,-1.69192 4.01456,-5.12261 5.77019,-7.62377 9.18033,-13.07876 18.85182,-13.65637 20.21056,-1.20703 0.65845,6.03295 1.9233,11.87839 3.33435,15.40947 4.65738,11.65492 4.24707,35.69712 -0.944,55.3125 -5.15731,19.48779 -21.0895,54.79206 -28.4483,63.03877 -2.35075,2.63439 -8.18839,12.86505 -11.90702,20.86748 -1.55744,3.35156 -3.24226,6.8263 -3.74405,7.72165 -0.50179,0.89535 -0.91235,2.39301 -0.91235,3.32813 0,0.93512 -0.36949,2.101 -0.82108,2.59084 -0.4516,0.48985 -1.98448,4.47657 -3.40641,8.85938 -1.42192,4.38281 -2.915,8.39062 -3.31794,8.90625 -0.40295,0.51562 -0.78825,1.35937 -0.85624,1.875 -0.11238,0.85223 -3.73561,7.39341 -10.56081,19.06584 -3.45292,5.90519 -3.30193,6.16925 1.87493,3.27891 12.2489,-6.83881 11.00384,4.21033 -1.62294,14.40263 -1.59397,1.28665 -4.59071,6.56546 -7.9832,14.0625 -6.8572,15.15373 -26.51475,54.54857 -30.31482,60.75262 -1.57914,2.57812 -3.95517,6.45397 -5.28009,8.613 -2.36367,3.85174 -4.75857,15.29325 -3.20113,15.29325 2.47237,0 18.67055,-17.93925 24.97211,-27.65625 2.34072,-3.60938 4.95796,-7.61719 5.8161,-8.90625 0.85815,-1.28906 5.05405,-9.51563 9.32422,-18.28125 10.91487,-22.40558 13.71492,-27.7803 20.02469,-38.4375 9.46433,-15.98528 18.11122,-28.61989 22.30323,-32.58895 0.95931,-0.9083 3.44711,-4.07236 5.52843,-7.03125 6.51956,-9.26848 13.06754,-17.21464 22.88011,-27.76569 5.21652,-5.60911 10.1729,-11.23855 11.01419,-12.50988 2.73614,-4.1348 27.45873,-28.74053 33.19669,-33.03976 3.0724,-2.30205 6.34634,-4.9446 7.2754,-5.87233 1.96368,-1.96082 15.40518,-11.63005 19.73072,-14.19336 1.62525,-0.96318 4.85353,-3.31468 7.17384,-5.22556 5.87466,-4.83805 18.44691,-12.38826 30,-18.0164 3.3516,-1.63273 6.7266,-3.44785 7.5,-4.03361 1.7167,-1.30008 8.5673,-4.28803 17.3438,-7.56449 3.6093,-1.34748 7.4062,-2.82044 8.4375,-3.27326 1.0312,-0.45282 5.3917,-1.90361 9.69,-3.22396 4.2983,-1.32037 8.596,-2.81859 9.5505,-3.32939 0.9544,-0.51081 2.922,-1.08356 4.3724,-1.27278 1.4504,-0.18923 3.2699,-0.56296 4.0433,-0.83053 38.3491,-13.26653 58.5978,-8.93764 40.5469,8.66837 -13.848,13.50664 -17.3365,18.23385 -28.3716,38.44658 -5.4897,10.05525 -17.1468,27.91822 -22.0444,33.78031 -1.7908,2.1434 -3.2559,4.22361 -3.2559,4.6227 0,0.39908 -6.8555,7.59235 -15.2344,15.98504 -13.6299,13.65237 -21.2409,20.64028 -32.9593,30.26126 -2.01439,1.65382 -4.54564,3.88459 -5.62499,4.95728 -5.97506,5.93798 -32.9459,26.61394 -45.08756,34.56428 -15.76064,10.32009 -16.55987,10.85486 -28.42116,19.01697 -19.77795,13.6098 -32.46484,20.31025 -55.48509,29.30383 -12.07263,4.71654 -17.02969,7.78431 -16.29028,10.08153 0.36427,1.13173 0.26684,1.28227 -0.31204,0.48209 -0.61175,-0.84561 -2.74886,0.66005 -7.82281,5.51141 -7.21969,6.90296 -16.85791,13.80514 -22.66669,16.2322 -1.85024,0.77308 -7.24083,5.44775 -12.10618,10.49835 -4.82391,5.00759 -9.82544,10.14445 -11.1145,11.41524 -3.845,3.79048 -15.19026,10.87018 -19.70026,12.29339 -6.93376,2.18808 -13.12914,9.39535 -18.29897,21.28775 -1.60683,3.69624 -3.54232,7.70869 -4.30112,8.91654 -0.75879,1.20784 -2.59839,5.1492 -4.088,8.75858 -1.48962,3.60937 -5.1089,11.625 -8.04286,17.8125 -2.93396,6.1875 -6.28686,13.35937 -7.45087,15.9375 -1.16402,2.57812 -4.52836,9.75 -7.47631,15.9375 -2.94796,6.1875 -5.63309,12.37354 -5.96695,13.74674 -0.33387,1.37321 -3.56131,8.6552 -7.1721,16.18219 -3.61078,7.527 -6.56506,13.97914 -6.56506,14.33811 0,0.35897 -2.47873,5.94418 -5.50828,12.41157 -9.68615,20.67766 -10.57506,22.7068 -10.13848,23.14338 0.23562,0.23562 3.46452,-4.33889 7.17534,-10.16555 3.71082,-5.82667 8.14011,-12.57203 9.84285,-14.98969 2.20608,-3.13233 3.71687,-7.03943 5.25639,-13.59375 1.18828,-5.0589 2.39797,-9.40894 2.68821,-9.66675 0.29025,-0.25781 0.63775,-1.86165 0.77224,-3.56408 0.36767,-4.65441 2.73842,-7.68592 6.01066,-7.68592 3.53909,0 11.19455,1.86099 12.78336,3.10755 2.82551,2.21686 5.24147,11.89245 2.96951,11.89245 -0.52839,0 -1.3617,1.05469 -1.8518,2.34375 -0.4901,1.28906 -1.52228,2.34375 -2.29374,2.34375 -0.79574,0 -1.74382,1.31835 -2.19113,3.04687 -0.90618,3.50168 -5.75311,7.24025 -9.48189,7.31365 -1.98198,0.039 -3.70401,1.77261 -9.18203,9.24374 -9.14765,12.47588 -23.07565,33.8588 -22.45717,34.47728 C 692.24399,813.494 720,788.68582 720,786.83946 c 0,-2.03979 2.90616,-7.17722 4.8271,-8.53324 0.95447,-0.67377 1.7354,-1.78931 1.7354,-2.47899 0,-3.03641 5.52765,-7.33108 8.63573,-6.70946 4.59765,0.91953 9.97674,3.54847 10.61271,5.18678 1.19792,3.08595 1.36205,7.57045 0.27707,7.57045 -0.59841,0 -0.84519,0.24283 -0.54839,0.53962 0.65843,0.65843 -5.32838,6.96038 -6.61231,6.96038 -0.50409,0 -2.27138,1.26562 -3.92731,2.8125 -2.20381,2.05867 -3.92651,2.81289 -6.42728,2.81395 -4.13979,0.002 -7.26162,1.65333 -16.23497,8.58888 -3.77795,2.91999 -10.23013,7.86471 -14.33818,10.98825 -8.58607,6.5284 -10.72053,9.76444 -5.8482,8.86642 4.55925,-0.84033 7.52949,-2.44702 8.63905,-4.67314 1.61627,-3.24273 3.42939,-5.07275 6.67686,-6.7391 1.67642,-0.8602 6.55319,-3.33684 10.83726,-5.50364 4.28407,-2.16679 8.8439,-4.54309 10.13296,-5.28064 1.28906,-0.73756 3.39844,-1.78758 4.6875,-2.3334 11.86892,-5.02549 16.18423,-6.7317 20.625,-8.1548 2.83594,-0.90881 7.6875,-2.78019 10.78125,-4.1586 3.09375,-1.37842 7.10156,-3.04217 8.90625,-3.69724 1.80469,-0.65507 5.39062,-1.95643 7.96875,-2.89192 16.89332,-6.12987 30.76635,-7.27577 57.1875,-4.72367 37.72374,3.64386 50.92501,5.92742 65.625,11.35186 2.57812,0.95135 5.95312,2.00895 7.5,2.35021 4.00223,0.88293 21.11494,7.8587 23.90625,9.74506 1.28906,0.87116 3.1065,1.85965 4.03875,2.19667 11.79206,4.26286 27.21638,21.12312 27.13772,29.66417 -0.27431,29.78543 -2.66147,33.60457 -19.15135,30.64037 -20.28391,-3.64624 -28.39522,-4.02995 -44.83762,-2.12111 -5.8483,0.67896 -27.4553,2.27283 -39.84375,2.93915 -17.19135,0.92465 -44.97041,-4.11712 -61.90506,-11.23548 -6.15806,-2.58849 -14.81795,-4.2529 -26.94319,-5.1784 -19.64656,-1.49958 -32.57457,-7.26965 -51.11854,-22.81537 l -4.02928,-3.37781 -3.47072,1.56934 c -1.90889,0.86314 -5.39124,2.93077 -7.73855,4.59475 -5.81973,4.12552 -13.39315,6.8041 -21.95162,7.76389 -10.09982,1.13265 -13.62137,5.74814 -27.41553,35.93211 -7.0909,15.51607 -6.32327,18.00433 3.14628,10.19871 4.80524,-3.96088 14.1076,-2.83915 16.11566,1.94332 0.17295,0.41189 0.67012,0.52908 1.10483,0.26041 1.12702,-0.69654 0.38807,9.22561 -0.86088,11.55928 -1.70381,3.18362 -4.93206,4.85502 -9.37726,4.85502 -2.37326,0 -5.99706,0.87821 -8.37624,2.02996 -3.68245,1.78265 -4.77263,1.91128 -8.94845,1.05588 -5.56639,-1.14027 -8.51299,0.30023 -9.50878,4.64853 -0.32472,1.41797 -0.95032,2.57813 -1.39024,2.57813 -0.4399,0 -1.09993,0.94922 -1.46671,2.10937 -0.36679,1.16016 -1.81523,4.64063 -3.21874,7.73438 -3.53993,7.803 -11.76202,28.28062 -13.17476,32.8125 -0.64293,2.0625 -3.02476,8.17969 -5.29293,13.59375 -2.26817,5.41406 -5.41071,13.42969 -6.98342,17.8125 -1.5727,4.38281 -3.32304,8.53687 -3.88963,9.23138 -0.77657,0.95175 -0.6372,1.48246 0.56617,2.15596 0.87799,0.49135 1.59634,1.52007 1.59634,2.286 0,0.76594 0.67224,2.41857 1.49387,3.67257 1.42945,2.18169 1.3998,3.76629 -0.21925,11.71659 -0.1575,0.7734 -0.68703,3.8597 -1.17673,6.8584 -0.58826,3.6022 -1.56937,6.041 -2.89156,7.1878 -1.92231,1.6671 -4.55776,10.4375 -8.87886,29.5475 -0.81615,3.6094 -1.73697,7.5118 -2.04628,8.6719 -1.01965,3.8246 2.14009,2.3663 4.83431,-2.231 3.31324,-5.6536 5.40202,-8.6913 11.93137,-17.3516 2.96485,-3.9324 5.39063,-7.4386 5.39063,-7.7915 0,-0.3529 1.05469,-2.0244 2.34375,-3.7144 1.945,-2.55 2.34375,-4.1106 2.34375,-9.1726 0,-6.9157 1.42983,-12.0045 3.37297,-12.0045 0.72299,0 2.06779,-0.7533 2.98845,-1.6739 0.92065,-0.9206 3.25105,-2.8769 5.17867,-4.3471 2.43273,-1.8556 3.34567,-3.1746 2.98461,-4.3121 -0.72791,-2.29343 1.14563,-5.97902 3.58337,-7.04909 3.91526,-1.71862 3.31573,-13.62722 -0.6479,-12.86953 -2.6314,0.50306 -6.21017,-3.47672 -6.21017,-6.906 0,-2.72447 3.19202,-3.01012 6.2115,-0.55584 2.93707,2.38743 5.41878,11.35528 4.68114,16.91587 -0.80705,6.08391 2.69038,8.40806 6.82378,4.5346 6.16931,-5.78129 17.30956,-9.73379 19.56082,-6.94004 3.081,3.82341 -4.24498,7.30022 -9.05406,4.29685 -2.6921,-1.68122 -10.40669,3.41878 -10.409,6.88125 -9.3e-4,1.37843 -1.0012,3.69873 -2.22282,5.15623 -2.23434,2.6658 -4.34136,10.1519 -4.34136,15.4245 0,2.8367 -3.59607,7.4867 -6.55167,8.4719 -1.17316,0.3911 -1.13096,0.8352 0.28458,2.9956 0.91408,1.3951 2.05406,2.2942 2.5333,1.998 0.47923,-0.2961 1.60914,0.3232 2.51091,1.3765 2.36557,2.7627 5.77879,2.5866 5.23271,-0.27 -1.61231,-8.4343 9.63196,-19.7426 13.46453,-13.5414 0.25723,0.4163 0.83005,0.5328 1.27292,0.2591 0.44288,-0.2737 1.08202,0.3745 1.42031,1.4403 0.48869,1.5398 0.88542,1.7137 1.93056,0.8463 1.65739,-1.3755 4.15185,-0.4817 4.15185,1.4876 0,0.8202 0.4147,1.2347 0.92155,0.9215 2.39386,-1.4795 7.69792,0.6504 7.2646,2.9172 -0.23313,1.2195 0.14993,2.6935 0.85125,3.2755 2.60545,2.1624 -0.66751,7.719 -4.64931,7.8932 -3.68928,0.1616 -7.90483,3.2481 -5.9388,4.3483 0.85289,0.4773 1.55071,1.8767 1.55071,3.1097 0,3.0101 1.05782,3.483 5.53856,2.4763 7.29022,-1.638 13.20468,3.8108 9.39443,8.6547 -2.56773,3.2643 -7.54471,4.6695 -14.54802,4.1073 l -5.90627,-0.474 1.58614,2.4207 c 0.87238,1.3314 2.53655,3.3711 3.69816,4.5328 4.70488,4.7048 1.69177,10.6347 -5.40381,10.6347 -6.10429,0 -9.98629,-3.0271 -11.21215,-8.7431 -1.70787,-7.9635 -3.95162,-10.3878 -5.14014,-5.5538 -2.12683,8.6504 -12.27308,9.4928 -14.1009,1.1708 -0.33961,-1.5463 -1.01914,-2.8114 -1.51006,-2.8114 -2.23157,0 -12.36232,4.0059 -19.99304,7.9057 -4.6081,2.355 -8.82685,4.2871 -9.375,4.2934 -0.54816,0.01 -1.95802,1.4955 -3.13303,3.3093 -1.175,1.8137 -3.60078,3.996 -5.39062,4.8495 -1.78984,0.8535 -3.25425,1.8477 -3.25425,2.2093 0,0.3616 -1.86875,0.9376 -4.15277,1.2802 -4.99221,0.7486 -8.74078,3.4947 -10.49209,7.6862 -1.74984,4.1879 -1.72082,4.2527 1.75423,3.917 3.12899,-0.3023 3.59617,0.5581 2.17326,4.0023 -0.5033,1.2183 -0.075,1.4052 2.39014,1.0434 l 3.0033,-0.4408 -3.19446,4.4482 c -3.40519,4.7417 -5.82321,6.7146 -11.33309,9.2466 -3.70681,1.7036 -7.9297,6.5498 -10.41857,11.9565 -4.13658,8.9861 -10.06779,25.6806 -11.96159,33.6682 -1.16138,4.8984 -3.10312,11.9686 -4.31498,15.7114 -2.6073,8.0527 -2.94576,12.3218 -0.83819,10.5727 0.75084,-0.6231 1.80553,-0.8609 2.34375,-0.5283 0.53821,0.3327 0.97856,-0.053 0.97856,-0.8567 0,-0.8038 -0.66216,-1.4616 -1.47145,-1.4616 -0.98972,0 -1.37338,-0.6906 -1.17188,-2.1094 0.27133,-1.9104 0.79975,-2.1048 5.60396,-2.0613 7.35957,0.066 11.378,4.3267 6.52909,6.9218 -3.75096,2.0075 -3.20818,6.8046 0.64771,5.7244 5.6961,-1.5957 10.19787,4.1401 5.41359,6.8975 -5.62948,3.2445 -5.42201,9.002 0.32439,9.002 1.97563,0 4.03938,3.432 3.35686,5.5824 -0.8467,2.6677 -9.87685,4.784 -12.197,2.8585 -2.91679,-2.4207 -5.6347,2.4334 -9.18431,16.4029 -1.83426,7.2187 -3.62408,13.9687 -3.97736,15 -0.76342,2.2284 10.99991,-9.5733 15.03265,-15.0817 1.54687,-2.1128 4.3687,-5.1948 6.27072,-6.8485 4.38839,-3.8158 9.19803,-11.0319 9.19803,-13.8002 0,-1.1703 0.50363,-2.439 1.11918,-2.8195 0.66492,-0.4109 -0.56007,-1.0993 -3.01807,-1.6959 -9.39835,-2.2813 -6.79243,-12.5431 2.94933,-11.614 3.23248,0.3082 3.63706,0.1162 3.63706,-1.7263 0,-8.0078 5.40787,-10.7614 8.71994,-4.44 l 1.25513,2.3955 2.62523,-3.4419 c 2.30225,-3.0185 2.48242,-3.7087 1.46439,-5.6109 -1.42271,-2.6584 -0.42745,-4.5528 2.05135,-3.9045 1.39948,0.3659 2.07168,-0.1775 2.79841,-2.2621 0.52606,-1.5091 1.54802,-2.7438 2.27102,-2.7438 1.42354,0 1.81462,1.5216 0.52207,2.0313 -0.43585,0.1718 -1.07671,1.4726 -1.42411,2.8906 -0.84122,3.4335 1.26402,3.4454 4.68283,0.026 1.4465,-1.4464 2.70375,-2.0947 2.90306,-1.4968 0.19335,0.5801 -0.7247,2.131 -2.04013,3.4465 -2.70002,2.7 -3.50436,6.4424 -0.92446,4.3012 0.80699,-0.6697 2.38902,-1.2902 3.51563,-1.3788 1.12661,-0.089 2.78667,-0.4811 3.68901,-0.8723 0.96658,-0.4191 1.64063,-0.311 1.64063,0.2632 0,0.9811 -1.78583,1.768 -5.74147,2.5297 -1.17768,0.2268 -2.99264,1.2637 -4.03322,2.3044 l -1.89197,1.8919 2.09605,0 c 1.15283,0 2.92355,-0.5167 3.93493,-1.1484 2.225,-1.3895 4.13137,0.029 3.22236,2.3979 -0.68571,1.7869 -3.8086,2.1161 -4.36076,0.4595 -0.74495,-2.2348 -2.60649,0.2862 -1.99889,2.707 0.4269,1.7009 0.28781,2.2277 -0.46531,1.7622 -0.6292,-0.3888 -1.07422,-0.067 -1.07422,0.7761 0,0.792 -1.05469,2.131 -2.34375,2.9757 -2.41311,1.5811 -3.25726,3.6859 -1.17188,2.9219 1.41208,-0.5173 8.20313,3.0613 8.20313,4.3227 0,1.768 -4.5969,5.0998 -7.88816,5.7172 -3.04188,0.5707 -3.36184,0.9219 -3.36184,3.6903 0,8.2054 -8.86061,9.1799 -11.49901,1.2647 -0.49615,-1.4885 -6.4828,3.0967 -11.93849,9.1438 -9.47078,10.4973 -20.41408,21.4791 -24.55214,24.6386 -3.39763,2.5942 -4.52725,4.1338 -4.97433,6.78 -0.73392,4.3441 -2.69049,7.3027 -9.35176,14.1413 -5.33453,5.4764 -5.3381,5.484 -8.45774,17.9485 -6.90889,27.6044 -13.05668,64.8217 -14.06172,85.126 -0.26799,5.4141 -0.73916,14.2735 -1.04705,19.6875 -0.30789,5.4141 -0.50629,20.8868 -0.44089,34.3837 0.0781,16.1147 -0.21608,24.7469 -0.85678,25.1429 -0.53662,0.3317 -0.73296,0.9957 -0.4363,1.4757 0.47259,0.7647 -3.20842,1.3811 -5.57913,0.9342 -0.46837,-0.088 -1.20019,0.3892 -1.62627,1.0609 -0.53656,0.846 -0.77909,0.549 -0.78904,-0.9661 z m -0.64727,-143.8282 c 0.87171,-3.7383 2.39425,-11.2438 3.38341,-16.6788 0.98918,-5.4352 2.24331,-10.9196 2.78696,-12.1875 0.54365,-1.2681 1.83887,-6.6675 2.87825,-11.9988 1.0394,-5.3313 2.19664,-10.1829 2.57165,-10.7813 0.37501,-0.5984 0.70679,-1.5098 0.73729,-2.0254 0.16718,-2.8272 1.66519,-11.6361 2.39141,-14.0625 3.35147,-11.1979 6.83323,-25.7629 7.95588,-33.2813 2.85414,-19.1142 2.93398,-21.849 0.90322,-30.9375 -2.75463,-12.3282 -2.34559,-14.91 2.23987,-14.1379 2.17767,0.3668 -1.25143,-23.9353 -3.75286,-26.5965 -0.46044,-0.4898 -0.83716,-2.2558 -0.83716,-3.9243 0,-2.5602 -0.58201,-3.3609 -3.72787,-5.129 -3.04268,-1.7101 -4.0037,-2.9704 -5.22867,-6.8569 -0.82545,-2.6189 -2.17823,-6.098 -3.00619,-7.7312 -3.7155,-7.3294 1.52818,-13.897 11.09948,-13.9021 9.98601,-0.01 12.91327,3.458 12.27978,14.5279 -0.0738,1.2891 -0.14981,3.8203 -0.16899,5.625 -0.0192,1.8115 -0.92183,4.4941 -2.01516,5.9891 -2.16442,2.9595 -2.14299,4.8647 0.31489,27.9953 0.93227,8.7734 2.64023,13.954 2.64023,8.0084 0,-2.5713 6.42509,-23.031 8.0351,-25.5865 0.64969,-1.0313 2.53498,-6.4674 4.18953,-12.0803 1.65455,-5.6129 4.28839,-12.9957 5.85299,-16.4062 3.74716,-8.1683 5.22555,-14.7162 4.25761,-18.8573 -0.42182,-1.8047 -0.81728,-4.8123 -0.8788,-6.6834 -0.11319,-3.4438 -1.69665,-7.5056 -1.7802,-4.5666 -0.022,0.7734 -2.40881,-4.9219 -5.30406,-12.6562 -2.89526,-7.7344 -6.2821,-15.4361 -7.5263,-17.115 -1.24421,-1.6787 -2.00301,-3.4717 -1.68621,-3.9843 0.3168,-0.5126 0.17729,-0.932 -0.31001,-0.932 -0.4873,0 -1.58101,-1.4646 -2.43044,-3.2546 -0.84944,-1.7901 -3.49173,-6.1143 -5.87175,-9.6094 -10.62563,-15.6039 -28.97016,-56.34544 -27.97775,-62.136 0.33677,-1.965 0.23756,-2.8005 -0.24732,-2.08275 -1.00344,1.48528 -2.60392,-1.69209 -3.51304,-6.97434 -0.34069,-1.97954 -1.17709,-5.91947 -1.85868,-8.75541 -0.68157,-2.83594 -1.49926,-8.10938 -1.8171,-11.71875 -0.31783,-3.60938 -0.80191,-7.82813 -1.07576,-9.375 -2.38105,-13.45001 -0.56716,-49.2178 3.06656,-60.46875 0.74939,-2.32031 2.97355,-10.54688 4.94258,-18.28125 1.96903,-7.73438 4.05323,-15.25012 4.63155,-16.70166 1.27539,-3.20112 1.30873,-3.72422 0.19338,-3.0349 -0.47197,0.29169 -2.054,-0.43116 -3.51563,-1.60632 -1.46162,-1.17518 -5.25481,-3.91947 -8.42928,-6.09846 l -5.77178,-3.96178 -1.49385,4.38419 c -0.82161,2.41131 -1.49384,4.97525 -1.49384,5.69765 0,1.90625 -11.05687,24.35607 -13.94983,28.32369 -11.07527,15.18941 -20.45103,25.23833 -31.07871,33.31009 -2.71559,2.0625 -7.10049,5.47077 -9.74423,7.57394 -4.04902,3.2211 -20.47722,13.51981 -21.56643,13.51981 -0.18929,0 -3.12185,1.6875 -6.5168,3.75 -3.39494,2.0625 -6.51046,3.75 -6.92336,3.75 -0.41291,0 -3.47913,1.43324 -6.81382,3.18498 -3.33469,1.75174 -10.28182,4.74004 -15.43807,6.64067 -9.47801,3.49369 -23.23751,9.85482 -29.85794,13.80357 -9.06684,5.40806 -18.77173,18.74222 -18.56962,25.51397 0.0295,0.98972 -1.6038,3.50728 -3.62964,5.59443 l -3.68336,3.79491 0.37917,6.83803 c 0.20854,3.76088 0.88583,8.37319 1.5051,10.24964 l 1.12593,3.4115 1.28705,-3.061 c 0.70788,-1.6835 1.28706,-3.83139 1.28706,-4.77301 0,-2.15025 0.68236,-2.56144 6.26548,-3.77494 9.64,-2.09531 9.35319,-2.10113 10.98054,0.22219 0.84705,1.20937 1.84837,2.09334 2.22516,1.96443 0.37679,-0.1289 0.70002,0.0825 0.71829,0.46875 0.0822,1.73972 2.50651,4.92188 3.74976,4.92188 1.93517,0 1.71957,1.0414 -0.97048,4.6875 -1.28906,1.7472 -2.34375,3.7933 -2.34375,4.5468 0,2.182 -4.33364,7.2724 -8.18305,9.6117 -7.77362,4.7242 -6.32748,14.0656 6.95166,44.904 13.95476,32.4074 18.43552,39.5413 19.28449,30.7031 0.26002,-2.707 1.44977,-12.2155 2.64386,-21.1299 2.29208,-17.1115 2.30066,-16.9499 -1.45999,-27.4483 l -1.53365,-4.2814 3.30328,-7.2487 c 2.32343,-5.0984 3.14642,-8.0328 2.77447,-9.8926 -0.3959,-1.9795 9.3e-4,-3.138 1.58062,-4.6094 1.77317,-1.6518 1.91545,-2.199 0.89253,-3.4315 -1.01917,-1.228 -0.8965,-1.8073 0.7549,-3.5652 2.4349,-2.5918 2.1879,-6.4279 -0.6053,-9.4011 -1.11585,-1.1878 -2.02882,-2.6598 -2.02882,-3.2711 0,-2.00062 2.45242,-1.1677 5.00852,1.7011 1.37826,1.5469 2.09125,2.8125 1.58442,2.8125 -0.60357,0 -0.60375,0.8358 -5.3e-4,2.4224 0.50656,1.3324 0.68215,2.8089 0.39022,3.2813 -0.29194,0.4724 -0.084,0.8588 0.46204,0.8588 1.19901,0 1.33712,-7.694 0.1607,-8.9531 -1.74371,-1.8663 -2.16915,-5.1094 -0.67028,-5.1094 2.24678,0 3.57518,3.5127 3.22708,8.5335 -0.38651,5.5747 -0.0394,5.6524 3.48611,0.7793 4.73359,-6.5429 5.14653,-6.8573 6.81524,-5.1886 1.30255,1.3026 1.05728,1.8379 -2.47768,5.4083 -4.10902,4.15 -4.52804,4.9831 -2.98584,5.9362 1.30972,0.8095 1.17486,4.9209 -0.17618,5.3713 -0.78984,0.2632 -0.65353,1.0282 0.46875,2.6305 2.10195,3.0009 2.06564,7.1872 -0.0683,7.8645 -1.4358,0.4557 -1.58639,1.3888 -1.15697,7.1683 0.49028,6.5986 -1.69713,15.8717 -3.74395,15.8717 -2.28583,0 -6.57443,11.4404 -8.08299,21.5625 -0.26897,1.8047 -0.86012,4.7578 -1.31367,6.5625 -2.79614,11.1259 -1.48382,17.953 2.10683,10.9606 1.16745,-2.2735 3.727,-7.2378 5.6879,-11.0317 3.07492,-5.9492 3.41131,-7.1856 2.44585,-8.9896 -1.01761,-1.9014 -0.88356,-7.8731 0.36565,-16.2895 0.48749,-3.2842 3.01179,-6.9019 5.89147,-8.443 7.12924,-3.8155 18.10088,5.51 14.21739,12.0843 -0.80904,1.3696 -1.45938,2.839 -1.44523,3.2654 0.0845,2.5437 -6.45758,10.4066 -9.72708,11.691 -1.977,0.7765 -3.59456,1.9807 -3.59456,2.676 0,0.6952 -0.41384,1.264 -0.91964,1.264 -0.5058,0 -1.20013,1.1602 -1.54296,2.5781 -0.34283,1.418 -1.33691,3.6328 -2.20905,4.9219 -0.87216,1.2891 -1.85167,3.0809 -2.1767,3.9819 -0.32502,0.9011 -2.18664,4.0651 -4.13693,7.0313 -4.09606,6.2297 -4.76813,18.6487 -1.47787,27.3093 2.58228,6.797 10.54716,22.2647 10.56838,20.5235 0.0116,-0.9503 1.01417,-1.8723 2.41943,-2.225 1.69076,-0.4244 2.24414,-1.0528 1.87317,-2.1273 -0.32685,-0.9466 0.15333,-0.7251 1.26623,0.5844 0.98601,1.1602 2.24163,2.1094 2.79026,2.1094 1.91968,0 3.60905,5.2194 4.09648,12.6562 0.4126,6.2954 1.13154,8.8468 4.47585,15.884 5.9966,12.6183 14.32614,27.7714 17.89301,32.551 1.74575,2.3393 3.6937,5.0547 4.32877,6.0342 0.63508,0.9795 2.21712,3.3816 3.51563,5.3381 1.29852,1.9565 2.36094,3.895 2.36094,4.3078 0,0.4129 0.84375,1.5142 1.875,2.4474 1.03125,0.9333 1.875,2.2643 1.875,2.9579 0,0.6934 0.31641,1.2614 0.70313,1.2618 0.38672,6e-4 1.9651,2.2154 3.50752,4.9219 2.51906,4.4202 2.83821,4.6824 3.13671,2.5772 0.45613,-3.2171 2.04667,-5.0435 3.30041,-3.7898 0.53748,0.5375 1.70818,0.9773 2.60155,0.9773 1.83346,0 2.16231,0.8392 3.65009,9.3159 1.23532,7.0383 4.30093,13.4055 15.44434,32.0777 0.51563,0.864 2.38305,4.0328 4.14983,7.0418 1.76678,3.009 4.75698,7.7912 6.64488,10.6271 1.8879,2.8359 5.06189,8.1094 7.05331,11.7187 3.63959,6.5967 14.49329,22.0313 15.49246,22.0313 0.29449,0 1.24865,-3.0586 2.12036,-6.7969 z m 33.26996,-58.1726 c 1.28713,-1.3701 3.02991,-6.0727 4.77724,-12.8906 1.51298,-5.9035 3.41684,-12.3021 4.23079,-14.2192 1.62706,-3.832 1.9354,-7.841 0.66352,-8.6271 -1.63416,-1.01 -2.03036,-6.2683 -0.58147,-7.7172 2.4214,-2.4213 1.5142,-3.575 -0.9735,-1.2379 -1.30426,1.2253 -2.18519,2.713 -1.95763,3.306 0.76526,1.9942 -6.50556,34.7819 -9.29206,41.9024 -0.90352,2.3088 0.73226,2.0392 3.13311,-0.5164 z M 339.375,1121.5509 c 0,-0.3501 -0.49658,-2.0098 -1.10351,-3.6883 -1.46052,-4.0389 0.25416,-6.3918 4.09788,-5.6231 3.3892,0.6778 3.34312,0.3108 -1.11937,-8.917 -2.0625,-4.265 -3.75,-8.2526 -3.75,-8.8613 0,-0.6086 -0.63281,-1.6318 -1.40625,-2.2737 -0.77344,-0.6419 -1.40625,-1.9592 -1.40625,-2.9273 0,-0.9681 -0.40864,-1.7602 -0.90808,-1.7602 -0.49944,0 -0.66524,-0.6328 -0.36845,-1.4063 0.29681,-0.7734 0.1624,-1.4062 -0.29867,-1.4062 -0.46106,0 -0.90918,-0.9411 -0.99582,-2.0913 -0.0866,-1.1501 -0.80923,-2.5678 -1.60576,-3.1502 -0.79652,-0.5824 -1.44822,-1.5201 -1.44822,-2.0838 0,-1.7958 -11.50823,-20.2459 -14.00536,-22.4535 -2.2416,-1.9817 -5.88138,-2.2004 -8.72902,-0.5244 -1.95222,1.149 -0.31875,7.6668 4.89251,19.5219 6.76716,15.3947 10.34187,27.0142 10.34187,33.616 0,4.0141 0.20431,4.3247 4.81417,7.3192 11.13608,7.2341 12.99833,8.1953 12.99833,6.7095 z m 222.77064,-46.7242 c 3.56256,-2.4176 4.11581,-3.6631 12.06994,-27.1704 2.83477,-8.3778 8.0202,-26.5723 8.95083,-31.4063 0.54596,-2.8359 1.36866,-6.0724 1.82823,-7.192 0.53333,-1.2994 0.43227,-3.1042 -0.2794,-4.9897 -0.98607,-2.6123 -0.90456,-3.0716 0.70508,-3.9724 2.71396,-1.51881 6.17982,-5.52652 5.5961,-6.47106 -0.28104,-0.45468 0.14875,-1.4864 0.95506,-2.29275 0.80631,-0.80634 1.47518,-2.59603 1.48636,-3.97715 0.0112,-1.38113 1.54073,-6.72994 3.39897,-11.88619 11.80101,-32.74556 14.22691,-40.94753 12.59396,-42.58048 -0.86126,-0.86126 -3.39574,-5.34394 -5.63216,-9.96148 -2.23643,-4.61755 -5.48708,-10.40042 -7.22367,-12.85083 -1.73659,-2.45042 -3.15744,-4.68772 -3.15744,-4.97178 0,-4.21451 -26.58878,-32.2654 -28.63965,-30.21453 -0.26438,0.26438 0.81285,5.28408 2.39384,11.15489 6.57969,24.43293 9.34916,54.41187 6.5722,71.14296 -0.47069,2.83594 -1.55315,9.97697 -2.40547,15.86887 -0.85232,5.892 -1.88004,11.58732 -2.28384,12.65625 -0.4038,1.06904 -1.46255,5.10769 -2.35279,8.97488 -0.89024,3.86719 -2.81631,10.8736 -4.28015,15.5698 -9.90986,31.7921 -11.52988,49.1748 -5.89536,63.2568 1.74152,4.3525 1.27938,4.2441 5.59936,1.3126 z m 47.22936,-8.6461 c 3.35156,-1.581 9.72036,-4.5834 14.15287,-6.6721 5.54555,-2.6132 8.84993,-4.8345 10.5946,-7.1218 1.5144,-1.9855 3.3657,-3.3393 4.59711,-3.3617 1.82488,-0.033 1.73864,-0.2087 -0.75083,-1.5272 -4.44927,-2.3565 -10.78125,-7.8064 -10.78125,-9.2793 0,-2.7463 -1.52802,-1.2591 -9.86535,9.6017 -2.30571,3.0036 -6.71551,8.6251 -9.79957,12.4923 -3.08405,3.8672 -5.60996,7.875 -5.61312,8.9063 -0.004,1.0974 0.27988,1.4522 0.68302,0.8556 0.37882,-0.5607 3.43096,-2.3129 6.78252,-3.8938 z M 305.87468,965.05041 c 0.30417,-1.59113 -0.45506,-4.36285 -2.12236,-7.74825 -1.42776,-2.89904 -4.57401,-9.48966 -6.99166,-14.64591 -6.68323,-14.25367 -7.41011,-15.55834 -9.21273,-16.53593 -1.85898,-1.00815 -1.45011,3.03731 0.56477,5.58795 0.53853,0.68173 1.99101,3.63485 3.22772,6.56245 1.23672,2.92772 3.84808,9.1199 5.80304,13.76053 7.40219,17.57109 7.75928,18.10359 8.73122,13.01916 z m 7.69667,-6.02419 c -0.39699,-0.64228 0.38837,-6.50588 3.40383,-25.41335 1.02425,-6.42222 0.96883,-7.53593 -0.53234,-10.69943 -1.24954,-2.63321 -1.55145,-4.90006 -1.18737,-8.91516 l 0.48821,-5.38412 -2.94996,1.20067 c -6.93425,2.8223 -11.21962,-1.32419 -10.42526,-10.08745 0.72404,-7.98751 5.9719,-12.45992 8.76464,-7.46956 0.50258,0.89805 1.05088,1.42539 1.21846,1.17187 0.16758,-0.25352 1.14844,-2.14844 2.17969,-4.21094 1.69117,-3.38235 2.28861,-3.79596 6.09375,-4.21875 2.90843,-0.32316 3.70918,-0.678 2.57812,-1.14246 -0.90234,-0.37052 -1.64062,-1.47902 -1.64062,-2.46332 0,-2.01492 2.37744,-4.41911 3.14377,-3.17915 0.27403,0.44336 1.78918,0.71674 3.36702,0.6075 1.57783,-0.10924 3.11626,0.2018 3.41871,0.69118 0.32971,0.53348 1.09554,0.43698 1.91245,-0.24099 0.95729,-0.79449 1.65722,-0.83609 2.35341,-0.1399 1.10708,1.10708 0.22811,4.92964 -1.13354,4.92964 -0.48087,0 -0.87432,0.81873 -0.87432,1.81941 0,1.67078 0.20444,1.71333 2.50284,0.52091 4.08835,-2.12106 6.88168,0.35657 7.66687,6.8003 0.38019,3.12017 2.99677,0.40057 6.76487,-7.03125 2.28754,-4.51171 4.42477,-8.41406 4.7494,-8.67187 0.32462,-0.25781 3.02192,-4.02566 5.994,-8.373 17.83284,-26.08459 53.72279,-54.17486 76.92489,-60.20742 3.50042,-0.91012 14.40297,-3.31871 18.9117,-4.17797 2.05531,-0.3917 2.03176,-0.47837 -0.9375,-3.44838 -14.87202,-14.87574 -28.14076,-30.89807 -32.20265,-38.88544 -0.97937,-1.92585 -1.99161,-3.71248 -2.24942,-3.97029 -1.26708,-1.26708 -4.82352,-8.63223 -3.88956,-8.055 0.59238,0.36611 1.07706,0.21889 1.07706,-0.32717 0,-0.54606 -0.62571,-0.99283 -1.39045,-0.99283 -2.22372,0 -6.19103,-8.73325 -5.51128,-12.13199 0.73208,-3.66039 -0.0479,-3.62121 -6.82642,0.34294 -14.89281,8.70944 -22.29141,12.5948 -31.7406,16.66856 -5.67188,2.44527 -10.78622,4.4571 -11.3652,4.47072 -1.39578,0.0328 -9.85653,3.7415 -11.46375,5.02498 -0.69655,0.55625 -1.75124,1.08648 -2.34375,1.17831 -4.57608,0.70914 -18.35595,5.56532 -26.652,9.39244 -3.04586,1.40511 -8.99789,3.57218 -18.95655,6.90187 -17.54005,5.86454 -21.965,9.33355 -28.11773,22.0434 -2.40096,4.95972 -8.09642,11.64774 -10.79183,12.67253 l -2.07158,0.78761 1.72454,6.87119 c 0.94849,3.77916 1.73176,8.71549 1.74057,10.96962 0.0133,3.40022 1.94867,18.722 3.27176,25.90157 1.30836,7.09962 6.52297,26.45077 8.62045,31.99005 l 2.52851,6.67755 2.98554,-1.24744 c 4.38995,-1.83424 11.52401,-0.53844 14.4751,2.62919 1.96698,2.1113 2.39842,7.59578 0.76764,9.75802 -0.51105,0.67758 -0.13615,1.23031 1.04374,1.53886 1.67502,0.43803 1.79163,1.06189 1.29181,6.91138 -0.9219,10.78956 -0.77321,13.92894 0.84095,17.7548 0.85281,2.02134 2.86894,7.26103 4.4803,11.64384 4.85629,13.20891 5.91966,15.17391 7.25833,13.41319 0.62801,-0.82603 0.94785,-1.81585 0.71075,-2.19947 z m 12.73262,-16.36997 c 2.62543,-7.21875 6.21858,-16.34216 7.98477,-20.27424 3.58825,-7.98855 3.83559,-9.25701 1.80501,-9.25701 -0.77344,0 -1.40625,0.56799 -1.40625,1.26221 0,2.09576 -2.91016,7.46824 -5.66407,10.45654 -2.67165,2.89903 -6.01279,13.60744 -8.41329,26.96475 -0.62663,3.48684 -1.51934,6.57459 -1.98378,6.86166 -0.46444,0.28706 -0.55357,0.99253 -0.19805,1.56778 0.81127,1.31268 1.83518,-0.97313 7.87566,-17.58169 z m -74.28583,-49.21307 c 0.0706,-5.11661 0.74669,-5.9099 3.4995,-4.10618 2.84749,1.86574 2.84398,1.63089 -0.0974,-6.52324 -1.31572,-3.6475 -3.7958,-11.95258 -5.51129,-18.45572 -3.60585,-13.66926 -5.32793,-17.45709 -8.61813,-18.9562 -3.15853,-1.43913 -5.73975,-6.25726 -3.95737,-7.38689 0.69315,-0.43931 1.04934,-0.83748 0.79153,-0.88482 -0.25781,-0.0474 -1.20703,-0.22741 -2.10938,-0.40016 -1.91408,-0.36641 -2.01859,0.31162 -0.60299,3.91212 2.16673,5.51094 4.16264,16.18657 5.13822,27.48291 0.66303,7.67743 3.64262,16.46753 8.18294,24.14062 3.48061,5.88219 3.22071,5.789 3.28435,1.17756 z m 13.33184,-4.5625 c -0.42303,-1.47501 -1.17677,-3.47891 -1.67497,-4.45313 -0.49821,-0.97422 -2.48544,-8.5213 -4.41607,-16.7713 -5.80419,-24.8026 -6.44515,-25.54841 -2.4171,-2.8125 2.11344,11.92912 5.22432,23.60212 6.80828,25.54687 1.65253,2.02895 2.49913,1.27694 1.69986,-1.50994 z m -10.91903,-92.55111 c 1.8398,-4.79446 0.59063,-12.09179 -2.35713,-13.76969 l -2.91433,-1.65886 0.62328,3.53386 c 2.10907,11.95792 3.37793,15.20491 4.64818,11.89469 z M 646.17028,994.6875 c 0.27444,-0.77344 1.24451,-3.25078 2.15571,-5.50509 1.53659,-3.80166 1.54404,-4.16194 0.10287,-4.96847 -3.48095,-1.94803 -0.18597,-11.00672 3.49041,-9.59597 2.97715,1.14244 -0.37199,15.93215 -4.48697,19.81444 -1.33439,1.25887 -1.64012,1.32065 -1.26202,0.25509 z"
     id="path70003"
     inkscape:connector-curvature="0" />
</svg>
